<svg viewBox="0 0 182 70" xmlns="http://www.w3.org/2000/svg"><path d="m23.251 20.318c-1.614-4.206-5.539-4.334-10.163-4-2.763.224-4.962.536-5.546-.987a2.518 2.518 0 0 1 1.624-2.956 4.208 4.208 0 0 1 4.551 1.066l3.994-4.345c-4.372-4.741-13.658-2.573-16.173 3.161a7.672 7.672 0 0 0 -.053 5.509c1.729 4.5 6.191 4.35 9.633 4.207 3.923-.176 5.769-.314 6.341 1.176.636 2.229-2.33 3.789-4.016 3.885a11.218 11.218 0 0 1 -6.876-2.365l-3.113 5.472c.328.16 7.686 4 13.408 1.611 4.738-1.818 8.282-6.499 6.389-11.434z"/><path d="m28.375 40.5 2.083 5.867-.679.241-.931-2.623-3.169 1.124.931 2.624-.679.241-2.082-5.864.679-.241.916 2.582 3.168-1.125-.912-2.581z"/><path d="m38.2 38.709-1.71 4.067.317 2.4-.714.1-.318-2.4-2.713-3.482.838-.111 2.141 2.817 1.325-3.28z"/><path d="m47.821 41.74a2.935 2.935 0 0 1 -3.328 3.071l-1.813-.054.18-6.222 1.929.055a2.822 2.822 0 0 1 3.032 3.15zm-.738-.013a2.133 2.133 0 0 0 -2.278-2.427l-1.246-.036-.14 4.827 1.165.034a2.226 2.226 0 0 0 2.499-2.398z"/><path d="m54.511 43.121-1.623-.275-.448 2.654-.711-.121 1.04-6.139 2.175.368c1.1.187 2.025.776 1.809 2.048a1.616 1.616 0 0 1 -1.47 1.438l1.042 3.063-.851-.144zm-1.505-.968 1.587.269c.824.14 1.323-.245 1.425-.85s-.271-1.12-1.077-1.256l-1.579-.267z"/><path d="m64.509 46.621-2.862-.858-1.12 1.41-.767-.23 4.251-5.226.75.225.674 6.7-.767-.229zm-.071-.755-.284-3.261-2.033 2.566z"/><path d="m74.569 46.2a9.629 9.629 0 0 1 -1.817-.609l-.272-.112-2.115 5.1-.665-.279 2.115-5.1-1.946-.807.269-.649 2.884 1.2a9.7 9.7 0 0 0 1.719.569z"/><path d="m75.892 53.153 2.864-5.529.64.331-2.864 5.53z"/><path d="m87.209 55.154a2.906 2.906 0 0 1 -3.978 1.714c-1.853-.845-1.962-2.684-1.3-4.125s2.117-2.563 3.97-1.717a2.906 2.906 0 0 1 1.308 4.128zm-.671-.306c.653-1.433.265-2.617-.941-3.167s-2.346-.064-3 1.369-.265 2.616.933 3.162 2.354.068 3.008-1.364z"/><path d="m97.148 55.689-2.174 5.835-.734-.273-1.54-5.976-1.767 4.743-.676-.252 2.174-5.835.733.274 1.546 5.967 1.764-4.735z"/><path d="m107.387 65.339a2.115 2.115 0 0 1 -1.767-2.491 2.861 2.861 0 0 1 .106-.349l.734.185a2.569 2.569 0 0 0 -.1.323 1.427 1.427 0 0 0 1.23 1.639c.69.174 1.337-.031 1.506-.7.193-.767-.449-1.094-1.145-1.461-.8-.431-1.7-.913-1.391-2.129a1.73 1.73 0 0 1 2.29-1.268 2.051 2.051 0 0 1 1.59 1.519l-.736.191a1.454 1.454 0 0 0 -1.1-1.01 1.013 1.013 0 0 0 -1.319.686c-.2.776.456 1.105 1.152 1.473.82.426 1.7.887 1.4 2.111a1.843 1.843 0 0 1 -2.45 1.281z"/><path d="m119.294 61.953a9.686 9.686 0 0 1 -1.905-.214l-.289-.053-1 5.433-.708-.13 1-5.433-2.074-.381.127-.691 3.071.564a9.712 9.712 0 0 0 1.8.2z"/><path d="m125.785 66.832-2.968-.351-.859 1.582-.8-.094 3.285-5.881.777.092 1.821 6.485-.8-.094zm-.2-.731-.844-3.163-1.559 2.878z"/><path d="m135.343 63.511a9.6 9.6 0 0 1 -1.917.036l-.293-.015-.283 5.517-.72-.037.283-5.517-2.105-.108.035-.7 3.119.16a9.775 9.775 0 0 0 1.81-.041z"/><path d="m139.393 69.191-.053-6.226.721-.006.053 6.226z"/><path d="m150.326 65.525a2.907 2.907 0 0 1 -2.653 3.425c-2.031.157-3.016-1.4-3.138-2.978s.613-3.268 2.644-3.425a2.908 2.908 0 0 1 3.147 2.978zm-.736.057c-.121-1.57-1.034-2.418-2.355-2.316s-2.085 1.079-1.964 2.649 1.034 2.418 2.347 2.317 2.093-1.08 1.972-2.65z"/><path d="m159.2 61.048 1.047 6.137-.771.132-4.332-4.395.856 4.988-.71.121-1.047-6.137.772-.132 4.33 4.387-.85-4.981z"/><path d="m167.119 65.676a2.114 2.114 0 0 1 -2.751-1.325 2.867 2.867 0 0 1 -.076-.357l.731-.193a2.627 2.627 0 0 0 .069.331 1.427 1.427 0 0 0 1.868.841c.688-.182 1.156-.674.978-1.344-.2-.765-.922-.741-1.709-.726-.908.009-1.927.021-2.247-1.192a1.73 1.73 0 0 1 1.392-2.217 2.052 2.052 0 0 1 2.126.56l-.551.523a1.456 1.456 0 0 0 -1.454-.351 1.013 1.013 0 0 0 -.823 1.238c.2.774.933.747 1.72.732.924-.023 1.92-.047 2.242 1.175a1.839 1.839 0 0 1 -1.515 2.305z"/><path d="m36.74 25.952-.983-24.885 6.543-.258.981 24.891z"/><path d="m81.557 16.321c-1.428 5.216-5.543 7.852-12.1 6.058l-4.426-1.212-1.867 6.833-6.348-1.738 6.575-24.026 11.153 3.053c6.52 1.785 8.256 6.502 7.013 11.032zm-6.392-1.713c.507-1.853-.468-3.411-2.63-4l-4.29-1.175-1.719 6.28 4.29 1.174c2.024.554 3.748-.081 4.349-2.278z"/><path d="m114.7 30.535c-1.549 5.181-5.725 7.72-12.235 5.775l-4.4-1.315-2.028 6.784-6.306-1.886 7.133-23.862 11.079 3.312c6.482 1.936 8.104 6.691 6.757 11.192zm-6.351-1.861c.55-1.841-.388-3.421-2.536-4.063l-4.261-1.274-1.862 6.237 4.261 1.274c2.012.6 3.749.007 4.4-2.175z"/><path d="m155.079 24.314 8.37-3.5a27.206 27.206 0 0 0 7.109-3.936l3.621 4.7c-2.283 1.918-4.31 2.882-8.315 4.556l-2.464 1.024 1.468 3.512 8.534-3.568 2.155 5.153-8.534 3.569 1.468 3.512 10.242-4.282 2.267 5.416-16.314 6.822z"/><path d="m145.157 43.768-10.389.037-.069-19.035-6.582.024.09 24.905 16.971-.061z"/></svg>