<svg id="Layer_1" data-name="Layer 1" xmlns="http://www.w3.org/2000/svg" viewBox="0 0 1020 390"><title>Untitled-1</title><path d="M129.158,112.47C120.083,88.824,98.019,88.107,72.03,89.963c-15.536,1.264-27.893,3.016-31.18-5.549-2.5-6.516,2.8-14.183,9.131-16.612a23.651,23.651,0,0,1,25.582,5.989L98.017,49.366C73.441,22.736,21.237,34.923,7.1,67.155,3.038,76.421,3.2,88.733,6.806,98.12c9.718,25.322,34.8,24.452,54.148,23.65,22.051-.986,32.432-1.766,35.647,6.612,3.573,12.528-13.1,21.3-22.58,21.836-11.733.668-26.688-4.317-38.652-13.29L17.874,167.687c1.842.9,43.205,22.456,75.372,9.054C119.87,166.524,139.8,140.211,129.158,112.47Z"/><path d="M157.962,225.939l11.707,32.983-3.817,1.355-5.234-14.749-17.811,6.322,5.234,14.748-3.816,1.355-11.707-32.984,3.816-1.354,5.151,14.513,17.811-6.322-5.15-14.513Z"/><path d="M213.212,215.848l-9.635,22.866,1.785,13.484-4.016.532-1.784-13.485L184.31,219.674l4.71-.624,12.036,15.861,7.447-18.44Z"/><path d="M267.274,232.886c-.273,9.4-5.563,17.645-18.706,17.263l-10.194-.3,1.014-34.98,10.844.314C263.125,215.561,267.535,223.891,267.274,232.886Zm-4.149-.07c.2-6.946-2.863-13.387-12.807-13.675l-7-.2-.787,27.135,6.546.19C259.225,246.557,262.915,240.062,263.125,232.816Z"/><path d="M304.88,240.65l-9.121-1.544L293.239,254l-3.994-.676,5.843-34.511,12.226,2.07c6.212,1.051,11.383,4.361,10.173,11.509-.868,5.128-4.163,7.512-8.266,8.085l5.858,17.22-4.782-.809Zm-8.461-5.439,8.923,1.51c4.635.785,7.435-1.378,8.011-4.779.584-3.452-1.521-6.293-6.057-7.061l-8.874-1.5Z"/><path d="M361.086,260.326,344.993,255.5,338.7,263.43l-4.311-1.293,23.894-29.378,4.215,1.264L366.29,271.7l-4.311-1.292Zm-.4-4.243-1.6-18.334L347.66,252.177Z"/><path d="M417.636,257.945a54.273,54.273,0,0,1-10.218-3.425l-1.524-.632L394,282.572l-3.741-1.552,11.891-28.683L391.206,247.8l1.513-3.649,16.212,6.721a54.513,54.513,0,0,0,9.663,3.195Z"/><path d="M425.07,297.046l16.1-31.082,3.6,1.862-16.1,31.083Z"/><path d="M488.691,308.293c-3.693,8.1-11.9,14.407-22.365,9.634-10.417-4.752-11.031-15.089-7.337-23.186s11.9-14.407,22.32-9.655C491.771,289.859,492.385,300.2,488.691,308.293Zm-3.775-1.723c3.673-8.051,1.489-14.707-5.288-17.8-6.732-3.072-13.191-.358-16.864,7.693s-1.489,14.708,5.243,17.779C474.784,317.335,481.243,314.621,484.916,306.57Z"/><path d="M544.558,311.3l-12.22,32.8-4.124-1.536-8.67-33.593-9.933,26.663-3.8-1.414,12.22-32.8,4.124,1.536,8.688,33.546,9.915-26.617Z"/><path d="M602.119,365.546c-6.352-1.6-11.705-6.964-9.938-14a16.109,16.109,0,0,1,.6-1.964l4.122,1.037a15.268,15.268,0,0,0-.56,1.818c-1.158,4.607,2.6,8.129,6.912,9.214,3.879.975,7.519-.172,8.47-3.955,1.085-4.315-2.526-6.151-6.441-8.218-4.5-2.42-9.537-5.131-7.818-11.968,1.512-6.013,6.573-8.711,12.877-7.126,4.8,1.207,8.095,4.51,8.938,8.538L615.142,340a8.186,8.186,0,0,0-6.2-5.683c-3.455-.818-6.586.561-7.415,3.858-1.1,4.365,2.563,6.213,6.477,8.28,4.605,2.395,9.574,4.985,7.843,11.87C614.125,365.162,608.035,367.033,602.119,365.546Z"/><path d="M669.05,346.51a54.263,54.263,0,0,1-10.709-1.2l-1.623-.3-5.61,30.541-3.983-.732,5.609-30.54-11.655-2.142.713-3.885,17.262,3.171a54.613,54.613,0,0,0,10.119,1.1Z"/><path d="M705.538,373.938l-16.683-1.974-4.828,8.894-4.469-.529,18.462-33.058,4.369.516,10.237,36.455-4.468-.529Zm-1.124-4.111-4.744-17.779-8.762,16.181Z"/><path d="M759.268,355.272a54.286,54.286,0,0,1-10.776.2l-1.648-.084L745.252,386.4l-4.045-.208,1.591-31.014-11.836-.607.2-3.946,17.529.9a54.706,54.706,0,0,0,10.177-.229Z"/><path d="M782.036,387.2l-.3-35,4.05-.035.3,35Z"/><path d="M843.492,366.592c.684,8.874-3.448,18.369-14.913,19.253-11.416.881-16.955-7.869-17.64-16.742s3.448-18.369,14.864-19.25C837.269,348.969,842.808,357.719,843.492,366.592Zm-4.138.319c-.68-8.823-5.812-13.592-13.24-13.02-7.378.569-11.718,6.069-11.037,14.893s5.813,13.593,13.191,13.023C835.7,381.235,840.035,375.735,839.354,366.911Z"/><path d="M893.4,341.423l5.886,34.5-4.337.74-24.351-24.706L875.378,380l-3.992.68-5.885-34.5,4.337-.739L894.18,370.1,889.4,342.1Z"/><path d="M937.892,367.441c-6.333,1.673-13.613-.437-15.465-7.447a15.856,15.856,0,0,1-.427-2.007l4.108-1.086a15.466,15.466,0,0,0,.389,1.863c1.213,4.592,6.2,5.86,10.5,4.723,3.867-1.022,6.5-3.786,5.5-7.556-1.136-4.3-5.185-4.164-9.61-4.08-5.105.055-10.829.12-12.63-6.7-1.583-5.994,1.542-10.8,7.826-12.462,4.786-1.265,9.266.034,11.952,3.151l-3.1,2.94a8.183,8.183,0,0,0-8.175-1.977c-3.42.955-5.493,3.675-4.625,6.962,1.149,4.351,5.246,4.2,9.672,4.116,5.189-.13,10.79-.265,12.6,6.6C948.215,361.3,943.789,365.883,937.892,367.441Z"/><path d="M204.982,144.139,199.459,4.248,236.231,2.8l5.522,139.891Z"/><path d="M456.917,90c-8.027,29.321-31.161,44.139-68,34.052l-24.884-6.813-10.51,38.387-35.686-9.77L354.8,10.821l62.693,17.164C454.143,38.018,463.888,64.533,456.917,90Zm-35.932-9.63c2.851-10.417-2.631-19.175-14.783-22.5l-24.114-6.6-9.664,35.3,24.114,6.6C407.918,96.281,417.605,92.712,420.985,80.366Z"/><path d="M643.242,169.9c-8.707,29.127-32.18,43.4-68.779,32.462l-24.721-7.389-11.4,38.134-35.451-10.6,40.1-134.138,62.278,18.617C641.677,117.869,650.8,144.6,643.242,169.9Zm-35.7-10.462c3.093-10.348-2.183-19.232-14.256-22.84l-23.953-7.16L558.85,164.5l23.953,7.16C594.11,175.042,603.876,171.7,607.542,159.435Z"/><path d="M870.208,134.928l47.054-19.672c14.762-6.172,28.555-12.589,39.959-22.126l20.356,26.391c-12.834,10.784-24.228,16.2-46.74,25.611L917,150.918l8.254,19.744L973.229,150.6l12.112,28.971-47.975,20.059,8.255,19.744,57.571-24.071,12.729,30.447L924.212,264.1Z"/><polygon points="814.434 244.286 756.033 244.496 755.648 137.494 718.648 137.627 719.151 277.629 814.552 277.287 814.434 244.286"/></svg>