<svg id="Layer_1" data-name="Layer 1" xmlns="http://www.w3.org/2000/svg" viewBox="0 0 182 50"><title>Sipple_Icon_RGB_Reverse</title><path d="M135.484,48.8q-1.6,0-3.218-.055a105.465,105.465,0,0,1-24.492-3.828,114.617,114.617,0,0,1-22.539-8.9,86.536,86.536,0,0,0-36.347-9.907,62.2,62.2,0,0,0-17.895,1.874,48.951,48.951,0,0,0-15.735,7.2L1,14.817C14.558,5.325,31.409.636,49.733,1.26A105.473,105.473,0,0,1,74.225,5.088a114.558,114.558,0,0,1,22.539,8.9,86.546,86.546,0,0,0,36.347,9.906,62.181,62.181,0,0,0,17.9-1.873,48.965,48.965,0,0,0,15.734-7.2L181,35.183C168.24,44.117,152.561,48.8,135.484,48.8Z"/></svg>