<svg viewBox="0 0 182 50" xmlns="http://www.w3.org/2000/svg"><path d="m135.484 48.8q-1.6 0-3.218-.055a105.465 105.465 0 0 1 -24.492-3.828 114.617 114.617 0 0 1 -22.539-8.9 86.536 86.536 0 0 0 -36.347-9.907 62.2 62.2 0 0 0 -17.895 1.874 48.951 48.951 0 0 0 -15.735 7.2l-14.258-20.367c13.558-9.492 30.409-14.181 48.733-13.557a105.473 105.473 0 0 1 24.492 3.828 114.558 114.558 0 0 1 22.539 8.9 86.546 86.546 0 0 0 36.347 9.906 62.181 62.181 0 0 0 17.9-1.873 48.965 48.965 0 0 0 15.734-7.2l14.255 20.362c-12.76 8.934-28.439 13.617-45.516 13.617z"/></svg>