<?xml version="1.0" standalone="no"?>
<!DOCTYPE svg PUBLIC "-//W3C//DTD SVG 20010904//EN"
 "http://www.w3.org/TR/2001/REC-SVG-20010904/DTD/svg10.dtd">
<svg version="1.0" xmlns="http://www.w3.org/2000/svg"
 width="260.000000pt" height="260.000000pt" viewBox="0 0 260.000000 260.000000"
 preserveAspectRatio="xMidYMid meet">
<metadata>
Created by potrace 1.11, written by Peter Selinger 2001-2013
</metadata>
<g transform="translate(0.000000,260.000000) scale(0.100000,-0.100000)"
fill="#000000" stroke="none">
<path d="M0 1300 l0 -1300 1300 0 1300 0 0 1300 0 1300 -1300 0 -1300 0 0
-1300z m1075 236 c113 -29 177 -53 285 -106 260 -128 519 -146 717 -48 75 37
61 45 157 -94 l67 -97 -43 -27 c-62 -40 -138 -71 -231 -96 -69 -19 -107 -23
-237 -23 -136 1 -168 4 -261 28 -114 29 -194 59 -299 112 -247 123 -512 139
-707 43 -75 -37 -61 -45 -157 94 l-67 97 41 26 c61 39 147 74 230 95 109 28
121 29 270 25 104 -3 158 -10 235 -29z"/>
</g>
</svg>
